<?xml version="1.0" encoding="UTF-8" standalone="no"?>
<!DOCTYPE svg PUBLIC "-//W3C//DTD SVG 1.1//EN" "http://www.w3.org/Graphics/SVG/1.1/DTD/svg11.dtd">
<svg xmlns:xl="http://www.w3.org/1999/xlink" xmlns:dc="http://purl.org/dc/elements/1.1/" xmlns="http://www.w3.org/2000/svg" version="1.1" viewBox="-35.15019 148 875.3126 847" width="875.3126" height="847">
  <defs/>
  <metadata> Produced by OmniGraffle 7.17.5\n2020-10-05 23:15:26 +0000</metadata>
  <g id="Canvas_1" stroke-dasharray="none" stroke-opacity="1" fill="none" fill-opacity="1" stroke="none">
    <title>Canvas 1</title>
    <g id="Canvas_1_Layer_1">
      <title>Layer 1</title>
      <g id="Graphic_100">
        <rect x="-29.65019" y="548.5" width="424.02445" height="441" fill="white"/>
        <rect x="-29.65019" y="548.5" width="424.02445" height="441" stroke="black" stroke-linecap="round" stroke-linejoin="round" stroke-width="1"/>
      </g>
      <g id="Graphic_101">
        <rect x="410.6379" y="548.5" width="424.02445" height="441" fill="white"/>
        <rect x="410.6379" y="548.5" width="424.02445" height="441" stroke="black" stroke-linecap="round" stroke-linejoin="round" stroke-width="1"/>
      </g>
      <g id="Graphic_98">
        <rect x="570.13274" y="153.5" width="264.52964" height="361.5" fill="white"/>
        <rect x="570.13274" y="153.5" width="264.52964" height="361.5" stroke="black" stroke-linecap="round" stroke-linejoin="round" stroke-width="1"/>
      </g>
      <g id="Graphic_99">
        <rect x="-29.65019" y="153.5" width="264.52964" height="361.5" fill="white"/>
        <rect x="-29.65019" y="153.5" width="264.52964" height="361.5" stroke="black" stroke-linecap="round" stroke-linejoin="round" stroke-width="1"/>
      </g>
      <g id="Graphic_97">
        <rect x="270.24127" y="153.5" width="264.52964" height="361.5" fill="white"/>
        <rect x="270.24127" y="153.5" width="264.52964" height="361.5" stroke="black" stroke-linecap="round" stroke-linejoin="round" stroke-width="1"/>
      </g>
      <g id="Graphic_2">
        <path d="M 83.00054 410.67967 L 104.00054 368.67967 L 125.00054 410.67967 Z" fill="white"/>
        <path d="M 83.00054 410.67967 L 104.00054 368.67967 L 125.00054 410.67967 Z" stroke="black" stroke-linecap="round" stroke-linejoin="round" stroke-width="1"/>
      </g>
      <g id="Graphic_3">
        <path d="M 44.000537 355.2036 L 90.95568 355.6667 L 62.412125 392.95296 Z" fill="white"/>
        <path d="M 44.000537 355.2036 L 90.95568 355.6667 L 62.412125 392.95296 Z" stroke="black" stroke-linecap="round" stroke-linejoin="round" stroke-width="1"/>
      </g>
      <g id="Graphic_4">
        <path d="M 90.00156 291.17967 L 93.63265 337.9965 L 54.00054 312.81127 Z" fill="white"/>
        <path d="M 90.00156 291.17967 L 93.63265 337.9965 L 54.00054 312.81127 Z" stroke="black" stroke-linecap="round" stroke-linejoin="round" stroke-width="1"/>
      </g>
      <g id="Graphic_5">
        <path d="M 161.22872 355.2036 L 114.27358 355.6667 L 142.81713 392.95296 Z" fill="white"/>
        <path d="M 161.22872 355.2036 L 114.27358 355.6667 L 142.81713 392.95296 Z" stroke="black" stroke-linecap="round" stroke-linejoin="round" stroke-width="1"/>
      </g>
      <g id="Graphic_6">
        <path d="M 114.75715 291.17967 L 110.30955 337.926 L 150.37517 313.43628 Z" fill="white"/>
        <path d="M 114.75715 291.17967 L 110.30955 337.926 L 150.37517 313.43628 Z" stroke="black" stroke-linecap="round" stroke-linejoin="round" stroke-width="1"/>
      </g>
      <g id="Graphic_8">
        <path d="M 382.41986 410.67967 L 403.41986 368.67967 L 424.41986 410.67967 Z" fill="white"/>
        <path d="M 382.41986 410.67967 L 403.41986 368.67967 L 424.41986 410.67967 Z" stroke="black" stroke-linecap="round" stroke-linejoin="round" stroke-width="1"/>
      </g>
      <g id="Graphic_9">
        <path d="M 343.41986 355.2036 L 390.375 355.6667 L 361.83145 392.95296 Z" fill="white"/>
        <path d="M 343.41986 355.2036 L 390.375 355.6667 L 361.83145 392.95296 Z" stroke="black" stroke-linecap="round" stroke-linejoin="round" stroke-width="1"/>
      </g>
      <g id="Graphic_10">
        <path d="M 389.4209 291.17967 L 393.05198 337.9965 L 353.41986 312.81127 Z" fill="white"/>
        <path d="M 389.4209 291.17967 L 393.05198 337.9965 L 353.41986 312.81127 Z" stroke="black" stroke-linecap="round" stroke-linejoin="round" stroke-width="1"/>
      </g>
      <g id="Graphic_11">
        <path d="M 460.64805 355.2036 L 413.6929 355.6667 L 442.23646 392.95296 Z" fill="white"/>
        <path d="M 460.64805 355.2036 L 413.6929 355.6667 L 442.23646 392.95296 Z" stroke="black" stroke-linecap="round" stroke-linejoin="round" stroke-width="1"/>
      </g>
      <g id="Graphic_12">
        <path d="M 414.17647 291.17967 L 409.72887 337.926 L 449.7945 313.43628 Z" fill="white"/>
        <path d="M 414.17647 291.17967 L 409.72887 337.926 L 449.7945 313.43628 Z" stroke="black" stroke-linecap="round" stroke-linejoin="round" stroke-width="1"/>
      </g>
      <g id="Graphic_13">
        <path d="M 461.82425 297.9946 L 468.71227 251.5451 L 427.41986 273.9044 Z" fill="white"/>
        <path d="M 461.82425 297.9946 L 468.71227 251.5451 L 427.41986 273.9044 Z" stroke="black" stroke-linecap="round" stroke-linejoin="round" stroke-width="1"/>
      </g>
      <g id="Graphic_14">
        <path d="M 380.33917 275.50103 L 340.70705 250.3158 L 344.33814 297.13263 Z" fill="white"/>
        <path d="M 380.33917 275.50103 L 340.70705 250.3158 L 344.33814 297.13263 Z" stroke="black" stroke-linecap="round" stroke-linejoin="round" stroke-width="1"/>
      </g>
      <g id="Graphic_15">
        <path d="M 382.41986 421.67967 L 403.41986 463.67967 L 424.41986 421.67967 Z" fill="white"/>
        <path d="M 382.41986 421.67967 L 403.41986 463.67967 L 424.41986 421.67967 Z" stroke="black" stroke-linecap="round" stroke-linejoin="round" stroke-width="1"/>
      </g>
      <g id="Graphic_16">
        <path d="M 681.5501 404.3766 L 702.5501 362.3766 L 723.5501 404.3766 Z" fill="white"/>
        <path d="M 681.5501 404.3766 L 702.5501 362.3766 L 723.5501 404.3766 Z" stroke="black" stroke-linecap="round" stroke-linejoin="round" stroke-width="1"/>
      </g>
      <g id="Graphic_17">
        <path d="M 642.5501 348.90056 L 689.5053 349.36364 L 660.9617 386.6499 Z" fill="white"/>
        <path d="M 642.5501 348.90056 L 689.5053 349.36364 L 660.9617 386.6499 Z" stroke="black" stroke-linecap="round" stroke-linejoin="round" stroke-width="1"/>
      </g>
      <g id="Graphic_18">
        <path d="M 688.5512 284.87662 L 692.18225 331.69344 L 652.5501 306.5082 Z" fill="white"/>
        <path d="M 688.5512 284.87662 L 692.18225 331.69344 L 652.5501 306.5082 Z" stroke="black" stroke-linecap="round" stroke-linejoin="round" stroke-width="1"/>
      </g>
      <g id="Graphic_19">
        <path d="M 759.7783 348.90056 L 712.8232 349.36364 L 741.3667 386.6499 Z" fill="white"/>
        <path d="M 759.7783 348.90056 L 712.8232 349.36364 L 741.3667 386.6499 Z" stroke="black" stroke-linecap="round" stroke-linejoin="round" stroke-width="1"/>
      </g>
      <g id="Graphic_20">
        <path d="M 713.30675 284.87662 L 708.85915 331.62294 L 748.9248 307.13323 Z" fill="white"/>
        <path d="M 713.30675 284.87662 L 708.85915 331.62294 L 748.9248 307.13323 Z" stroke="black" stroke-linecap="round" stroke-linejoin="round" stroke-width="1"/>
      </g>
      <g id="Graphic_21">
        <path d="M 760.9545 291.69155 L 767.8425 245.24205 L 726.5501 267.60134 Z" fill="white"/>
        <path d="M 760.9545 291.69155 L 767.8425 245.24205 L 726.5501 267.60134 Z" stroke="black" stroke-linecap="round" stroke-linejoin="round" stroke-width="1"/>
      </g>
      <g id="Graphic_22">
        <path d="M 679.46944 269.19798 L 639.8373 244.01275 L 643.4684 290.82958 Z" fill="white"/>
        <path d="M 679.46944 269.19798 L 639.8373 244.01275 L 643.4684 290.82958 Z" stroke="black" stroke-linecap="round" stroke-linejoin="round" stroke-width="1"/>
      </g>
      <g id="Graphic_23">
        <path d="M 681.5501 415.3766 L 702.5501 457.3766 L 723.5501 415.3766 Z" fill="white"/>
        <path d="M 681.5501 415.3766 L 702.5501 457.3766 L 723.5501 415.3766 Z" stroke="black" stroke-linecap="round" stroke-linejoin="round" stroke-width="1"/>
      </g>
      <g id="Graphic_24">
        <path d="M 642.5501 461.99334 L 689.5053 461.53025 L 660.9617 424.244 Z" fill="white"/>
        <path d="M 642.5501 461.99334 L 689.5053 461.53025 L 660.9617 424.244 Z" stroke="black" stroke-linecap="round" stroke-linejoin="round" stroke-width="1"/>
      </g>
      <g id="Graphic_25">
        <path d="M 742.2574 424.244 L 713.7138 461.53025 L 760.669 461.99334 Z" fill="white"/>
        <path d="M 742.2574 424.244 L 713.7138 461.53025 L 760.669 461.99334 Z" stroke="black" stroke-linecap="round" stroke-linejoin="round" stroke-width="1"/>
      </g>
      <g id="Group_28">
        <g id="Graphic_26">
          <path d="M 818.5196 279.0857 L 782.2522 249.25825 L 780.1507 296.16863 Z" fill="white"/>
          <path d="M 818.5196 279.0857 L 782.2522 249.25825 L 780.1507 296.16863 Z" stroke="black" stroke-linecap="round" stroke-linejoin="round" stroke-width="1"/>
        </g>
        <g id="Graphic_27">
          <path d="M 717.8746 243.9128 L 763.7074 233.6973 L 728.0353 203.16038 Z" fill="white"/>
          <path d="M 717.8746 243.9128 L 763.7074 233.6973 L 728.0353 203.16038 Z" stroke="black" stroke-linecap="round" stroke-linejoin="round" stroke-width="1"/>
        </g>
      </g>
      <g id="Group_29">
        <g id="Graphic_31">
          <path d="M 682.66134 203.35897 L 643.9927 229.99987 L 688.5066 244.95023 Z" fill="white"/>
          <path d="M 682.66134 203.35897 L 643.9927 229.99987 L 688.5066 244.95023 Z" stroke="black" stroke-linecap="round" stroke-linejoin="round" stroke-width="1"/>
        </g>
        <g id="Graphic_30">
          <path d="M 621.1095 290.41017 L 623.92294 243.5371 L 584.7364 269.41017 Z" fill="white"/>
          <path d="M 621.1095 290.41017 L 623.92294 243.5371 L 584.7364 269.41017 Z" stroke="black" stroke-linecap="round" stroke-linejoin="round" stroke-width="1"/>
        </g>
      </g>
      <g id="Graphic_32">
        <path d="M 162.9714 816.3245 L 183.9714 774.3245 L 204.9714 816.3245 Z" fill="white"/>
        <path d="M 162.9714 816.3245 L 183.9714 774.3245 L 204.9714 816.3245 Z" stroke="black" stroke-linecap="round" stroke-linejoin="round" stroke-width="1"/>
      </g>
      <g id="Graphic_33">
        <path d="M 123.9714 760.8484 L 170.92654 761.3115 L 142.38299 798.59775 Z" fill="white"/>
        <path d="M 123.9714 760.8484 L 170.92654 761.3115 L 142.38299 798.59775 Z" stroke="black" stroke-linecap="round" stroke-linejoin="round" stroke-width="1"/>
      </g>
      <g id="Graphic_34">
        <path d="M 169.97243 696.8245 L 173.60351 743.6413 L 133.9714 718.4561 Z" fill="white"/>
        <path d="M 169.97243 696.8245 L 173.60351 743.6413 L 133.9714 718.4561 Z" stroke="black" stroke-linecap="round" stroke-linejoin="round" stroke-width="1"/>
      </g>
      <g id="Graphic_35">
        <path d="M 241.19958 760.8484 L 194.24444 761.3115 L 222.788 798.59775 Z" fill="white"/>
        <path d="M 241.19958 760.8484 L 194.24444 761.3115 L 222.788 798.59775 Z" stroke="black" stroke-linecap="round" stroke-linejoin="round" stroke-width="1"/>
      </g>
      <g id="Graphic_36">
        <path d="M 194.728 696.8245 L 190.2804 743.5708 L 230.34603 719.0811 Z" fill="white"/>
        <path d="M 194.728 696.8245 L 190.2804 743.5708 L 230.34603 719.0811 Z" stroke="black" stroke-linecap="round" stroke-linejoin="round" stroke-width="1"/>
      </g>
      <g id="Graphic_37">
        <path d="M 242.37578 703.6394 L 249.2638 657.1899 L 207.9714 679.5492 Z" fill="white"/>
        <path d="M 242.37578 703.6394 L 249.2638 657.1899 L 207.9714 679.5492 Z" stroke="black" stroke-linecap="round" stroke-linejoin="round" stroke-width="1"/>
      </g>
      <g id="Graphic_38">
        <path d="M 160.8907 681.1458 L 121.25859 655.9606 L 124.88968 702.7774 Z" fill="white"/>
        <path d="M 160.8907 681.1458 L 121.25859 655.9606 L 124.88968 702.7774 Z" stroke="black" stroke-linecap="round" stroke-linejoin="round" stroke-width="1"/>
      </g>
      <g id="Graphic_39">
        <path d="M 162.9714 827.3245 L 183.9714 869.3245 L 204.9714 827.3245 Z" fill="white"/>
        <path d="M 162.9714 827.3245 L 183.9714 869.3245 L 204.9714 827.3245 Z" stroke="black" stroke-linecap="round" stroke-linejoin="round" stroke-width="1"/>
      </g>
      <g id="Graphic_40">
        <path d="M 123.9714 873.9412 L 170.92654 873.4781 L 142.38299 836.1918 Z" fill="white"/>
        <path d="M 123.9714 873.9412 L 170.92654 873.4781 L 142.38299 836.1918 Z" stroke="black" stroke-linecap="round" stroke-linejoin="round" stroke-width="1"/>
      </g>
      <g id="Graphic_41">
        <path d="M 223.67863 836.1918 L 195.13508 873.4781 L 242.09022 873.9412 Z" fill="white"/>
        <path d="M 223.67863 836.1918 L 195.13508 873.4781 L 242.09022 873.9412 Z" stroke="black" stroke-linecap="round" stroke-linejoin="round" stroke-width="1"/>
      </g>
      <g id="Group_42">
        <g id="Graphic_44">
          <path d="M 299.94085 691.0335 L 263.67346 661.2061 L 261.57194 708.1165 Z" fill="white"/>
          <path d="M 299.94085 691.0335 L 263.67346 661.2061 L 261.57194 708.1165 Z" stroke="black" stroke-linecap="round" stroke-linejoin="round" stroke-width="1"/>
        </g>
        <g id="Graphic_43">
          <path d="M 199.29587 655.86064 L 245.12865 645.64515 L 209.4566 615.1082 Z" fill="white"/>
          <path d="M 199.29587 655.86064 L 245.12865 645.64515 L 209.4566 615.1082 Z" stroke="black" stroke-linecap="round" stroke-linejoin="round" stroke-width="1"/>
        </g>
      </g>
      <g id="Group_45">
        <g id="Graphic_47">
          <path d="M 164.0826 615.3068 L 125.41398 641.9477 L 169.92788 656.8981 Z" fill="white"/>
          <path d="M 164.0826 615.3068 L 125.41398 641.9477 L 169.92788 656.8981 Z" stroke="black" stroke-linecap="round" stroke-linejoin="round" stroke-width="1"/>
        </g>
        <g id="Graphic_46">
          <path d="M 102.53073 702.358 L 105.3442 655.48495 L 66.157665 681.358 Z" fill="white"/>
          <path d="M 102.53073 702.358 L 105.3442 655.48495 L 66.157665 681.358 Z" stroke="black" stroke-linecap="round" stroke-linejoin="round" stroke-width="1"/>
        </g>
      </g>
      <g id="Graphic_64">
        <path d="M 230.34603 916.3255 L 190.71392 891.1403 L 194.345 937.9571 Z" fill="white"/>
        <path d="M 230.34603 916.3255 L 190.71392 891.1403 L 194.345 937.9571 Z" stroke="black" stroke-linecap="round" stroke-linejoin="round" stroke-width="1"/>
      </g>
      <g id="Graphic_65">
        <path d="M 47.09714 644.2923 L 94.05228 643.8292 L 65.50873 606.5429 Z" fill="white"/>
        <path d="M 47.09714 644.2923 L 94.05228 643.8292 L 65.50873 606.5429 Z" stroke="black" stroke-linecap="round" stroke-linejoin="round" stroke-width="1"/>
      </g>
      <g id="Graphic_67">
        <path d="M 299.21535 611.75044 L 270.6718 649.0367 L 317.62693 649.4998 Z" fill="white"/>
        <path d="M 299.21535 611.75044 L 270.6718 649.0367 L 317.62693 649.4998 Z" stroke="black" stroke-linecap="round" stroke-linejoin="round" stroke-width="1"/>
      </g>
      <g id="Graphic_68">
        <path d="M 601.65015 820.6229 L 622.65015 778.6229 L 643.65015 820.6229 Z" fill="white"/>
        <path d="M 601.65015 820.6229 L 622.65015 778.6229 L 643.65015 820.6229 Z" stroke="black" stroke-linecap="round" stroke-linejoin="round" stroke-width="1"/>
      </g>
      <g id="Graphic_69">
        <path d="M 562.65015 765.1468 L 609.6053 765.6099 L 581.06173 802.8962 Z" fill="white"/>
        <path d="M 562.65015 765.1468 L 609.6053 765.6099 L 581.06173 802.8962 Z" stroke="black" stroke-linecap="round" stroke-linejoin="round" stroke-width="1"/>
      </g>
      <g id="Graphic_70">
        <path d="M 608.6512 701.1229 L 612.28226 747.9397 L 572.65015 722.7545 Z" fill="white"/>
        <path d="M 608.6512 701.1229 L 612.28226 747.9397 L 572.65015 722.7545 Z" stroke="black" stroke-linecap="round" stroke-linejoin="round" stroke-width="1"/>
      </g>
      <g id="Graphic_71">
        <path d="M 679.8783 765.1468 L 632.9232 765.6099 L 661.46674 802.8962 Z" fill="white"/>
        <path d="M 679.8783 765.1468 L 632.9232 765.6099 L 661.46674 802.8962 Z" stroke="black" stroke-linecap="round" stroke-linejoin="round" stroke-width="1"/>
      </g>
      <g id="Graphic_72">
        <path d="M 633.40676 701.1229 L 628.95916 747.8692 L 669.0248 723.3795 Z" fill="white"/>
        <path d="M 633.40676 701.1229 L 628.95916 747.8692 L 669.0248 723.3795 Z" stroke="black" stroke-linecap="round" stroke-linejoin="round" stroke-width="1"/>
      </g>
      <g id="Graphic_73">
        <path d="M 681.0545 707.9378 L 687.94255 661.4883 L 646.65015 683.8476 Z" fill="white"/>
        <path d="M 681.0545 707.9378 L 687.94255 661.4883 L 646.65015 683.8476 Z" stroke="black" stroke-linecap="round" stroke-linejoin="round" stroke-width="1"/>
      </g>
      <g id="Graphic_74">
        <path d="M 599.56945 685.44425 L 559.93734 660.259 L 563.5684 707.07585 Z" fill="white"/>
        <path d="M 599.56945 685.44425 L 559.93734 660.259 L 563.5684 707.07585 Z" stroke="black" stroke-linecap="round" stroke-linejoin="round" stroke-width="1"/>
      </g>
      <g id="Graphic_75">
        <path d="M 601.65015 831.6229 L 622.65015 873.6229 L 643.65015 831.6229 Z" fill="white"/>
        <path d="M 601.65015 831.6229 L 622.65015 873.6229 L 643.65015 831.6229 Z" stroke="black" stroke-linecap="round" stroke-linejoin="round" stroke-width="1"/>
      </g>
      <g id="Graphic_76">
        <path d="M 679.9784 809.2918 L 726.9336 808.8287 L 698.39 771.5424 Z" fill="white"/>
        <path d="M 679.9784 809.2918 L 726.9336 808.8287 L 698.39 771.5424 Z" stroke="black" stroke-linecap="round" stroke-linejoin="round" stroke-width="1"/>
      </g>
      <g id="Graphic_77">
        <path d="M 662.3574 840.4903 L 633.8138 877.7765 L 680.769 878.2396 Z" fill="white"/>
        <path d="M 662.3574 840.4903 L 633.8138 877.7765 L 680.769 878.2396 Z" stroke="black" stroke-linecap="round" stroke-linejoin="round" stroke-width="1"/>
      </g>
      <g id="Group_78">
        <g id="Graphic_80">
          <path d="M 738.6196 695.332 L 702.3522 665.5045 L 700.2507 712.4149 Z" fill="white"/>
          <path d="M 738.6196 695.332 L 702.3522 665.5045 L 700.2507 712.4149 Z" stroke="black" stroke-linecap="round" stroke-linejoin="round" stroke-width="1"/>
        </g>
        <g id="Graphic_79">
          <path d="M 637.9746 660.1591 L 683.8074 649.9436 L 648.1353 619.40665 Z" fill="white"/>
          <path d="M 637.9746 660.1591 L 683.8074 649.9436 L 648.1353 619.40665 Z" stroke="black" stroke-linecap="round" stroke-linejoin="round" stroke-width="1"/>
        </g>
      </g>
      <g id="Group_81">
        <g id="Graphic_83">
          <path d="M 602.76135 619.60524 L 564.0927 646.24614 L 608.6066 661.1965 Z" fill="white"/>
          <path d="M 602.76135 619.60524 L 564.0927 646.24614 L 608.6066 661.1965 Z" stroke="black" stroke-linecap="round" stroke-linejoin="round" stroke-width="1"/>
        </g>
        <g id="Graphic_82">
          <path d="M 541.2095 706.65645 L 544.02295 659.7834 L 504.8364 685.65645 Z" fill="white"/>
          <path d="M 541.2095 706.65645 L 544.02295 659.7834 L 504.8364 685.65645 Z" stroke="black" stroke-linecap="round" stroke-linejoin="round" stroke-width="1"/>
        </g>
      </g>
      <g id="Graphic_84">
        <path d="M 669.0248 920.6239 L 629.3927 895.4387 L 633.02375 942.2555 Z" fill="white"/>
        <path d="M 669.0248 920.6239 L 629.3927 895.4387 L 633.02375 942.2555 Z" stroke="black" stroke-linecap="round" stroke-linejoin="round" stroke-width="1"/>
      </g>
      <g id="Graphic_85">
        <path d="M 485.7759 648.5907 L 532.731 648.1276 L 504.1875 610.84134 Z" fill="white"/>
        <path d="M 485.7759 648.5907 L 532.731 648.1276 L 504.1875 610.84134 Z" stroke="black" stroke-linecap="round" stroke-linejoin="round" stroke-width="1"/>
      </g>
      <g id="Graphic_86">
        <path d="M 737.8941 616.0489 L 709.3505 653.3351 L 756.3057 653.7982 Z" fill="white"/>
        <path d="M 737.8941 616.0489 L 709.3505 653.3351 L 756.3057 653.7982 Z" stroke="black" stroke-linecap="round" stroke-linejoin="round" stroke-width="1"/>
      </g>
      <g id="Graphic_87">
        <path d="M 531.103 595.6932 L 552.103 637.6932 L 573.103 595.6932 Z" fill="white"/>
        <path d="M 531.103 595.6932 L 552.103 637.6932 L 573.103 595.6932 Z" stroke="black" stroke-linecap="round" stroke-linejoin="round" stroke-width="1"/>
      </g>
      <g id="Graphic_88">
        <path d="M 676.103 595.6932 L 697.103 637.6932 L 718.103 595.6932 Z" fill="white"/>
        <path d="M 676.103 595.6932 L 697.103 637.6932 L 718.103 595.6932 Z" stroke="black" stroke-linecap="round" stroke-linejoin="round" stroke-width="1"/>
      </g>
      <g id="Graphic_89">
        <path d="M 605.0142 940.7883 L 611.9022 894.3388 L 570.6098 916.6981 Z" fill="white"/>
        <path d="M 605.0142 940.7883 L 611.9022 894.3388 L 570.6098 916.6981 Z" stroke="black" stroke-linecap="round" stroke-linejoin="round" stroke-width="1"/>
      </g>
      <g id="Graphic_90">
        <path d="M 546.9103 771.5424 L 518.36674 808.8287 L 565.3219 809.2918 Z" fill="white"/>
        <path d="M 546.9103 771.5424 L 518.36674 808.8287 L 565.3219 809.2918 Z" stroke="black" stroke-linecap="round" stroke-linejoin="round" stroke-width="1"/>
      </g>
      <g id="Graphic_91">
        <path d="M 563.65015 879.2396 L 610.6053 878.7765 L 582.06173 841.4903 Z" fill="white"/>
        <path d="M 563.65015 879.2396 L 610.6053 878.7765 L 582.06173 841.4903 Z" stroke="black" stroke-linecap="round" stroke-linejoin="round" stroke-width="1"/>
      </g>
      <g id="Graphic_92">
        <path d="M 720.603 760.8962 L 741.603 802.8962 L 762.603 760.8962 Z" fill="white"/>
        <path d="M 720.603 760.8962 L 741.603 802.8962 L 762.603 760.8962 Z" stroke="black" stroke-linecap="round" stroke-linejoin="round" stroke-width="1"/>
      </g>
      <g id="Graphic_93">
        <path d="M 482.6973 765.8413 L 503.6973 807.8413 L 524.6973 765.8413 Z" fill="white"/>
        <path d="M 482.6973 765.8413 L 503.6973 807.8413 L 524.6973 765.8413 Z" stroke="black" stroke-linecap="round" stroke-linejoin="round" stroke-width="1"/>
      </g>
      <g id="Graphic_94">
        <path d="M 528.7738 867.0123 L 510.0985 823.9283 L 555.7709 834.8384 Z" fill="white"/>
        <path d="M 528.7738 867.0123 L 510.0985 823.9283 L 555.7709 834.8384 Z" stroke="black" stroke-linecap="round" stroke-linejoin="round" stroke-width="1"/>
      </g>
      <g id="Graphic_95">
        <path d="M 689.5294 837.3594 L 734.7932 824.8619 L 717.6329 868.5714 Z" fill="white"/>
        <path d="M 689.5294 837.3594 L 734.7932 824.8619 L 717.6329 868.5714 Z" stroke="black" stroke-linecap="round" stroke-linejoin="round" stroke-width="1"/>
      </g>
    </g>
  </g>
</svg>
